<svg xmlns="http://www.w3.org/2000/svg" x="0px" y="0px"
                        width="50" height="50"
                        viewBox="0 0 172 172"
                        style=" fill:#000000;"><g fill="none" fill-rule="nonzero" stroke="none" stroke-width="1" stroke-linecap="butt" stroke-linejoin="miter" stroke-miterlimit="10" stroke-dasharray="" stroke-dashoffset="0" font-family="none" font-weight="none" font-size="none" text-anchor="none" style="mix-blend-mode: normal"><path d="M0,172v-172h172v172z" fill="none"></path><g fill="#ffffff"><path d="M48.19225,19.48975l-12.35892,6.16333v60.34692h103.91667l3.54392,-6.12033z"></path><path d="M146.91667,86h-14.33333c0,-3.95958 3.20708,-7.16667 7.16667,-7.16667c3.95958,0 7.16667,3.20708 7.16667,7.16667z"></path><circle cx="12.159" cy="7.159" transform="scale(3.58333,3.58333)" r="2.159"></circle><path d="M48.19225,152.51025l-12.35892,-6.16333v-60.34692h103.91667l3.54392,6.12033z"></path><path d="M146.91667,86h-14.33333c0,3.95958 3.20708,7.16667 7.16667,7.16667c3.95958,0 7.16667,-3.20708 7.16667,-7.16667z"></path><circle cx="12.159" cy="40.841" transform="scale(3.58333,3.58333)" r="2.159"></circle></g></g></svg>